HIERARCHY
ROOT newVegas:Hips
{
	OFFSET 0.000000 96.479958 0.000000
	CHANNELS 6 Xposition Yposition Zposition Xrotation Yrotation Zrotation
	JOINT newVegas:Pelvis
	{
		OFFSET 0.000000 0.000000 0.000000
		CHANNELS 3 Xrotation Yrotation Zrotation
		JOINT newVegas:LeftUpLeg
		{
			OFFSET 18.735201 -5.666702 -4.541200
			CHANNELS 3 Xrotation Yrotation Zrotation
			JOINT newVegas:LeftLeg
			{
				OFFSET -0.021200 -31.938179 0.493100
				CHANNELS 3 Xrotation Yrotation Zrotation
				JOINT newVegas:LeftFoot
				{
					OFFSET 0.021200 -31.938179 -4.336299
					CHANNELS 3 Xrotation Yrotation Zrotation
					JOINT newVegas:LeftToeBase
					{
						OFFSET 0.943001 -26.722000 15.023500
						CHANNELS 3 Xrotation Yrotation Zrotation
						End Site
						{
							OFFSET 0.000000 30.670183 0.000000
						}
					}
				}
				JOINT newVegas:Left_PantLeg
				{
					OFFSET 0.663870 -9.044666 -1.108900
					CHANNELS 3 Xrotation Yrotation Zrotation
					End Site
					{
						OFFSET 1.415995 20.635357 0.000000
					}
				}
			}
		}
		JOINT newVegas:RightUpLeg
		{
			OFFSET -18.735201 -5.666702 -4.541200
			CHANNELS 3 Xrotation Yrotation Zrotation
			JOINT newVegas:RightLeg
			{
				OFFSET 0.018946 -31.938133 0.493100
				CHANNELS 3 Xrotation Yrotation Zrotation
				JOINT newVegas:RightFoot
				{
					OFFSET -0.018946 -31.938126 -4.336299
					CHANNELS 3 Xrotation Yrotation Zrotation
					JOINT newVegas:RightToeBase
					{
						OFFSET -0.943001 -26.722004 15.023500
						CHANNELS 3 Xrotation Yrotation Zrotation
						End Site
						{
							OFFSET 0.000000 30.670187 0.000000
						}
					}
				}
				JOINT newVegas:Right_PantLeg
				{
					OFFSET -0.661674 -9.044716 -1.108900
					CHANNELS 3 Xrotation Yrotation Zrotation
					End Site
					{
						OFFSET -1.415958 20.635269 0.000000
					}
				}
			}
		}
	}
	JOINT newVegas:Spine
	{
		OFFSET 0.000000 10.199997 -0.299500
		CHANNELS 3 Xrotation Yrotation Zrotation
		JOINT newVegas:Spine1
		{
			OFFSET 0.000000 11.900002 -1.516600
			CHANNELS 3 Xrotation Yrotation Zrotation
			JOINT newVegas:Spine2
			{
				OFFSET 0.000000 13.600006 -2.842500
				CHANNELS 3 Xrotation Yrotation Zrotation
				JOINT newVegas:Neck
				{
					OFFSET 0.000000 9.624100 -2.890100
					CHANNELS 3 Xrotation Yrotation Zrotation
					JOINT newVegas:Head
					{
						OFFSET 0.000000 14.068802 -1.351900
						CHANNELS 3 Xrotation Yrotation Zrotation
						JOINT newVegas:Hair_Back
						{
							OFFSET 0.000000 3.231903 -17.524799
							CHANNELS 3 Xrotation Yrotation Zrotation
							End Site
							{
								OFFSET 0.000000 19.849884 0.000000
							}
						}
						JOINT newVegas:Hair_Front
						{
							OFFSET 0.000000 31.260406 4.573800
							CHANNELS 3 Xrotation Yrotation Zrotation
							JOINT newVegas:Hair_Front1
							{
								OFFSET 0.000000 2.284103 11.993300
								CHANNELS 3 Xrotation Yrotation Zrotation
								JOINT newVegas:Hair_Front2
								{
									OFFSET 0.000000 2.284103 11.993300
									CHANNELS 3 Xrotation Yrotation Zrotation
									End Site
									{
										OFFSET 0.000000 12.208862 0.000000
									}
								}
							}
						}
						JOINT newVegas:Jowel
						{
							OFFSET 0.000000 -7.458206 6.864100
							CHANNELS 3 Xrotation Yrotation Zrotation
							End Site
							{
								OFFSET 0.000000 19.849884 0.000000
							}
						}
					}
				}
				JOINT newVegas:LeftShoulder
				{
					OFFSET 15.263000 10.923401 -0.547700
					CHANNELS 3 Xrotation Yrotation Zrotation
					JOINT newVegas:LeftArm
					{
						OFFSET 25.438599 -2.830597 -13.032500
						CHANNELS 3 Xrotation Yrotation Zrotation
						JOINT newVegas:LeftForeArm
						{
							OFFSET 29.960503 0.000000 0.000000
							CHANNELS 3 Xrotation Yrotation Zrotation
							JOINT newVegas:LeftHand
							{
								OFFSET 27.849251 0.000000 0.000000
								CHANNELS 3 Xrotation Yrotation Zrotation
								JOINT newVegas:LeftHandThumb1
								{
									OFFSET 4.487587 -3.305161 6.305391
									CHANNELS 3 Xrotation Yrotation Zrotation
									JOINT newVegas:LeftHandThumb2
									{
										OFFSET 5.480453 -3.164139 3.164143
										CHANNELS 3 Xrotation Yrotation Zrotation
										JOINT newVegas:LeftHandThumb3
										{
											OFFSET 5.159721 -2.978973 2.978967
											CHANNELS 3 Xrotation Yrotation Zrotation
											End Site
											{
												OFFSET 2.494507 5.926697 1.738678
											}
										}
									}
								}
								JOINT newVegas:LeftHandIndex1
								{
									OFFSET 18.578728 -0.527832 5.208049
									CHANNELS 3 Xrotation Yrotation Zrotation
									JOINT newVegas:LeftHandIndex2
									{
										OFFSET 3.192009 0.000000 0.000000
										CHANNELS 3 Xrotation Yrotation Zrotation
										JOINT newVegas:LeftHandIndex3
										{
											OFFSET 3.835129 0.000000 0.000000
											CHANNELS 3 Xrotation Yrotation Zrotation
											End Site
											{
												OFFSET -0.034599 3.816971 0.371180
											}
										}
									}
								}
								JOINT newVegas:LeftHandMiddle1
								{
									OFFSET 18.476105 0.000000 0.000000
									CHANNELS 3 Xrotation Yrotation Zrotation
									JOINT newVegas:LeftHandMiddle2
									{
										OFFSET 3.324875 0.000000 0.000000
										CHANNELS 3 Xrotation Yrotation Zrotation
										JOINT newVegas:LeftHandMiddle3
										{
											OFFSET 4.596550 0.000000 0.000000
											CHANNELS 3 Xrotation Yrotation Zrotation
											End Site
											{
												OFFSET 0.057701 4.578827 0.399218
											}
										}
									}
								}
								JOINT newVegas:LeftHandRing1
								{
									OFFSET 17.732719 0.121887 -4.201567
									CHANNELS 3 Xrotation Yrotation Zrotation
									JOINT newVegas:LeftHandRing2
									{
										OFFSET 2.733170 0.000000 0.000000
										CHANNELS 3 Xrotation Yrotation Zrotation
										JOINT newVegas:LeftHandRing3
										{
											OFFSET 3.178268 0.000000 0.000000
											CHANNELS 3 Xrotation Yrotation Zrotation
											End Site
											{
												OFFSET 0.119102 3.170624 0.185394
											}
										}
									}
								}
								JOINT newVegas:LeftHandPinky1
								{
									OFFSET 15.989624 -0.606689 -7.535461
									CHANNELS 3 Xrotation Yrotation Zrotation
									JOINT newVegas:LeftHandPinky2
									{
										OFFSET 2.538986 0.000000 0.000000
										CHANNELS 3 Xrotation Yrotation Zrotation
										JOINT newVegas:LeftHandPinky3
										{
											OFFSET 2.593102 0.000000 0.000000
											CHANNELS 3 Xrotation Yrotation Zrotation
											End Site
											{
												OFFSET -0.150902 2.584198 0.152708
											}
										}
									}
								}
							}
							JOINT newVegas:Left_Sleeve
							{
								OFFSET 0.267448 -0.649796 0.577675
								CHANNELS 3 Xrotation Yrotation Zrotation
								End Site
								{
									OFFSET 0.000000 15.991241 0.000000
								}
							}
							JOINT newVegas:Left_CapeC
							{
								OFFSET 15.715958 -8.608795 -6.935905
								CHANNELS 3 Xrotation Yrotation Zrotation
								JOINT newVegas:Left_CapeC1
								{
									OFFSET 0.000000 -8.688499 0.000000
									CHANNELS 3 Xrotation Yrotation Zrotation
									End Site
									{
										OFFSET 0.000000 8.688499 0.000000
									}
								}
							}
						}
						JOINT newVegas:Left_CapeB
						{
							OFFSET 26.118385 -8.608795 -7.079235
							CHANNELS 3 Xrotation Yrotation Zrotation
							JOINT newVegas:Left_CapeB1
							{
								OFFSET 0.000000 -8.688499 0.000000
								CHANNELS 3 Xrotation Yrotation Zrotation
								End Site
								{
									OFFSET 0.000000 8.688499 0.000000
								}
							}
						}
						JOINT newVegas:Left_CapeA
						{
							OFFSET 5.115639 -8.608795 -10.395809
							CHANNELS 3 Xrotation Yrotation Zrotation
							JOINT newVegas:Left_CapeA1
							{
								OFFSET 0.000000 -8.688499 0.000000
								CHANNELS 3 Xrotation Yrotation Zrotation
								End Site
								{
									OFFSET 0.000000 8.688499 0.000000
								}
							}
						}
					}
				}
				JOINT newVegas:RightShoulder
				{
					OFFSET -15.263000 10.923401 -0.547700
					CHANNELS 3 Xrotation Yrotation Zrotation
					JOINT newVegas:RightArm
					{
						OFFSET -25.438599 -2.830597 -13.032500
						CHANNELS 3 Xrotation Yrotation Zrotation
						JOINT newVegas:RightForeArm
						{
							OFFSET -29.960503 0.000000 0.000000
							CHANNELS 3 Xrotation Yrotation Zrotation
							JOINT newVegas:RightHand
							{
								OFFSET -27.849251 0.000000 0.000000
								CHANNELS 3 Xrotation Yrotation Zrotation
								JOINT newVegas:RightHandThumb1
								{
									OFFSET -4.487587 -3.305161 6.305391
									CHANNELS 3 Xrotation Yrotation Zrotation
									JOINT newVegas:RightHandThumb2
									{
										OFFSET -5.480453 -3.164139 3.164143
										CHANNELS 3 Xrotation Yrotation Zrotation
										JOINT newVegas:RightHandThumb3
										{
											OFFSET -5.159721 -2.978973 2.978967
											CHANNELS 3 Xrotation Yrotation Zrotation
											End Site
											{
												OFFSET -2.494507 5.926697 1.738678
											}
										}
									}
								}
								JOINT newVegas:RightHandIndex1
								{
									OFFSET -18.578728 -0.527832 5.208049
									CHANNELS 3 Xrotation Yrotation Zrotation
									JOINT newVegas:RightHandIndex2
									{
										OFFSET -3.192009 0.000000 0.000000
										CHANNELS 3 Xrotation Yrotation Zrotation
										JOINT newVegas:RightHandIndex3
										{
											OFFSET -3.835129 0.000000 0.000000
											CHANNELS 3 Xrotation Yrotation Zrotation
											End Site
											{
												OFFSET 0.034599 3.816971 0.371180
											}
										}
									}
								}
								JOINT newVegas:RightHandMiddle1
								{
									OFFSET -18.476105 0.000000 0.000000
									CHANNELS 3 Xrotation Yrotation Zrotation
									JOINT newVegas:RightHandMiddle2
									{
										OFFSET -3.324875 0.000000 0.000000
										CHANNELS 3 Xrotation Yrotation Zrotation
										JOINT newVegas:RightHandMiddle3
										{
											OFFSET -4.596550 0.000000 0.000000
											CHANNELS 3 Xrotation Yrotation Zrotation
											End Site
											{
												OFFSET -0.057701 4.578827 0.399218
											}
										}
									}
								}
								JOINT newVegas:RightHandRing1
								{
									OFFSET -17.732719 0.121887 -4.201567
									CHANNELS 3 Xrotation Yrotation Zrotation
									JOINT newVegas:RightHandRing2
									{
										OFFSET -2.733170 0.000000 0.000000
										CHANNELS 3 Xrotation Yrotation Zrotation
										JOINT newVegas:RightHandRing3
										{
											OFFSET -3.178268 0.000000 0.000000
											CHANNELS 3 Xrotation Yrotation Zrotation
											End Site
											{
												OFFSET -0.119102 3.170624 0.185394
											}
										}
									}
								}
								JOINT newVegas:RightHandPinky1
								{
									OFFSET -15.989624 -0.606689 -7.535461
									CHANNELS 3 Xrotation Yrotation Zrotation
									JOINT newVegas:RightHandPinky2
									{
										OFFSET -2.538986 0.000000 0.000000
										CHANNELS 3 Xrotation Yrotation Zrotation
										JOINT newVegas:RightHandPinky3
										{
											OFFSET -2.593102 0.000000 0.000000
											CHANNELS 3 Xrotation Yrotation Zrotation
											End Site
											{
												OFFSET 0.150902 2.584198 0.152708
											}
										}
									}
								}
							}
							JOINT newVegas:Right_CapeC
							{
								OFFSET -15.715958 -8.608795 -6.935905
								CHANNELS 3 Xrotation Yrotation Zrotation
								JOINT newVegas:Right_CapeC1
								{
									OFFSET 0.000000 -8.688499 0.000000
									CHANNELS 3 Xrotation Yrotation Zrotation
									End Site
									{
										OFFSET 0.000000 8.688499 0.000000
									}
								}
							}
							JOINT newVegas:Right_Sleeve
							{
								OFFSET -0.267448 -0.649994 0.577675
								CHANNELS 3 Xrotation Yrotation Zrotation
								End Site
								{
									OFFSET 0.000000 15.991302 0.000000
								}
							}
						}
						JOINT newVegas:Right_CapeA
						{
							OFFSET -5.115540 -8.608795 -10.395824
							CHANNELS 3 Xrotation Yrotation Zrotation
							JOINT newVegas:Right_CapeA1
							{
								OFFSET 0.000000 -8.688499 0.000000
								CHANNELS 3 Xrotation Yrotation Zrotation
								End Site
								{
									OFFSET 0.000000 8.688499 0.000000
								}
							}
						}
						JOINT newVegas:Right_CapeB
						{
							OFFSET -26.118187 -8.608795 -7.079266
							CHANNELS 3 Xrotation Yrotation Zrotation
							JOINT newVegas:Right_CapeB1
							{
								OFFSET 0.000000 -8.688499 0.000000
								CHANNELS 3 Xrotation Yrotation Zrotation
								End Site
								{
									OFFSET 0.000000 8.688499 0.000000
								}
							}
						}
					}
				}
				JOINT newVegas:Left_Collar
				{
					OFFSET 18.625099 8.655502 8.828100
					CHANNELS 3 Xrotation Yrotation Zrotation
					JOINT newVegas:Left_Collar1
					{
						OFFSET 14.783401 10.540405 -1.259500
						CHANNELS 3 Xrotation Yrotation Zrotation
						End Site
						{
							OFFSET 0.000000 18.199875 0.000000
						}
					}
				}
				JOINT newVegas:Collar_Back
				{
					OFFSET 0.000000 15.630707 -20.132601
					CHANNELS 3 Xrotation Yrotation Zrotation
					End Site
					{
						OFFSET 0.000000 22.523010 0.000000
					}
				}
				JOINT newVegas:Left_Peck
				{
					OFFSET 17.239599 -5.132599 25.482599
					CHANNELS 3 Xrotation Yrotation Zrotation
					End Site
					{
						OFFSET 0.000000 22.523010 0.000000
					}
				}
				JOINT newVegas:Right_Peck
				{
					OFFSET -17.239599 -5.132202 25.482599
					CHANNELS 3 Xrotation Yrotation Zrotation
					End Site
					{
						OFFSET 0.000000 22.523010 0.000000
					}
				}
				JOINT newVegas:Right_Collar
				{
					OFFSET -18.625099 8.655792 8.828100
					CHANNELS 3 Xrotation Yrotation Zrotation
					JOINT newVegas:Right_Collar1
					{
						OFFSET -14.783401 10.539993 -1.259500
						CHANNELS 3 Xrotation Yrotation Zrotation
						End Site
						{
							OFFSET 0.000000 18.199631 0.000000
						}
					}
				}
			}
		}
		JOINT newVegas:Belly
		{
			OFFSET 0.000000 -6.540398 9.014299
			CHANNELS 3 Xrotation Yrotation Zrotation
			End Site
			{
				OFFSET 0.000000 11.566666 0.000000
			}
		}
	}
	JOINT newVegas:ElvisFacialAnim_Joint
	{
		OFFSET 1.000000 -95.330101 -8.825800
		CHANNELS 3 Xrotation Yrotation Zrotation
		End Site
		{
			OFFSET 0.000000 35.315800 0.000000
		}
	}
}
MOTION
Frames: 4
Frame Time: 0.016667
-1.143526 86.504639 3.983464 -0.669235 -15.822852 -1.491568 -0.000000 0.000002 0.000000 -36.494927 15.775184 15.897240 55.354073 3.355484 10.526353 -19.974164 2.779546 -13.299740 -0.000000 0.000000 -0.000000 0.000001 0.000000 -0.000000 -30.497730 -20.222199 -12.498554 53.122551 -2.985063 -10.362317 -23.288669 -3.292414 12.514489 -0.000000 -0.000000 -0.000000 0.000001 0.000000 -0.000000 3.775193 1.222708 0.083447 2.523602 1.177438 -0.059023 2.503914 1.224027 -0.090937 0.191493 0.325015 1.940260 0.191489 0.325022 1.940257 0.000001 -0.000002 0.000000 0.191496 0.325011 1.940264 0.191490 0.325022 1.940258 -0.000000 -0.000000 -0.000001 0.000001 -0.000002 0.000000 0.513443 1.082368 14.986779 -49.547452 -53.697192 -56.631988 -0.000004 -52.589537 0.000000 -101.282546 -0.136468 2.488757 35.234545 -17.219602 -17.236894 29.406826 28.726533 -29.411792 -0.000001 0.000002 -0.000004 0.797696 3.221910 -27.804752 0.799592 3.225519 -27.838623 0.000001 -0.000002 -0.000001 0.796801 3.220203 -27.788712 0.800489 3.227218 -27.854649 -0.000001 0.000002 0.000000 0.797700 3.221896 -27.804744 0.799601 3.225521 -27.838615 -0.000001 -0.000004 -0.000002 2.684969 6.814116 -27.459493 0.809051 -0.835567 -28.291876 -0.000001 0.000005 0.000001 0.000001 -0.000000 -0.000001 0.000001 -0.000000 -0.000001 -0.000000 -0.000000 -0.000001 -0.000000 0.000001 0.000000 -0.000000 0.000001 0.000000 -0.000000 0.000001 0.000000 -0.000000 0.000001 0.000000 0.384722 -1.325532 -0.769391 3.865986 95.192135 -10.302387 0.000001 25.659976 0.000000 -50.084247 -3.447560 -9.781605 40.606629 -3.110524 26.124244 -37.849527 -44.264988 -46.874963 -0.000003 -0.000002 -0.000001 3.635332 -6.111021 61.464490 7.728613 -6.904475 96.464462 0.000001 -0.000000 0.000001 3.635323 -6.111006 61.464504 7.728614 -6.904466 96.464456 -0.000002 -0.000000 -0.000002 3.635325 -6.110997 61.464504 7.728627 -6.904461 96.464462 -0.000001 -0.000001 -0.000002 3.635333 -6.111045 61.464510 7.728602 -6.904466 96.464456 -0.000001 -0.000000 0.000001 -0.000000 -0.000000 -0.000000 0.000000 -0.000002 -0.000000 -0.000000 -0.000000 -0.000000 0.000000 0.000001 -0.000000 0.000000 0.000001 -0.000000 0.000000 0.000001 -0.000000 0.000000 0.000001 -0.000000 -0.000000 0.000000 -0.000000 -0.000000 0.000000 -0.000000 -0.000000 0.000000 -0.000000 -0.000000 0.000000 -0.000000 -0.000000 0.000000 -0.000000 -0.000000 0.000000 -0.000000 -0.000000 0.000000 -0.000000 0.000000 -0.000001 -0.000000 -0.000000 0.000002 0.000000 
-1.104662 86.480011 4.006041 -0.672992 -15.770589 -1.480102 -0.000000 -0.000001 -0.000000 -36.503755 15.708262 15.805505 55.437015 3.411703 10.523692 -20.024665 2.787431 -13.284673 -0.000000 0.000000 -0.000000 0.000002 0.000000 0.000001 -30.587240 -20.394301 -12.697303 53.225882 -2.821965 -10.360092 -23.354864 -3.261668 12.486657 0.000000 0.000000 -0.000000 -0.000002 -0.000002 0.000000 3.766886 1.202758 0.129400 2.514745 1.164374 -0.024040 2.495215 1.211956 -0.055855 0.186325 0.328180 1.934173 0.186322 0.328179 1.934174 0.000001 -0.000000 -0.000000 0.186397 0.328172 1.934176 0.186329 0.328193 1.934171 0.000000 -0.000001 -0.000000 0.000001 -0.000000 -0.000000 0.748155 0.781685 15.125089 -49.125883 -53.329909 -56.178873 -0.000017 -52.952486 -0.000012 -101.491270 -0.073167 2.700966 35.234549 -17.219597 -17.236886 29.406826 28.726539 -29.411795 -0.000000 0.000001 -0.000001 0.797694 3.221912 -27.804747 0.799600 3.225517 -27.838620 -0.000001 -0.000001 0.000000 0.796797 3.220202 -27.788715 0.800495 3.227217 -27.854645 -0.000003 -0.000000 -0.000000 0.797696 3.221892 -27.804742 0.799599 3.225516 -27.838620 -0.000001 0.000003 0.000000 2.684964 6.814107 -27.459490 0.809052 -0.835565 -28.291876 -0.000001 0.000004 -0.000000 0.000001 -0.000002 -0.000001 0.000001 -0.000002 -0.000001 -0.000000 -0.000001 -0.000001 0.000001 0.000000 0.000002 0.000001 0.000000 0.000002 0.000001 0.000000 0.000002 0.000001 -0.000000 0.000002 0.387291 -1.315634 -0.755623 4.637163 95.148613 -10.970150 0.000000 25.704915 0.000000 -50.030319 -3.689112 -9.647767 40.606629 -3.110527 26.124242 -37.849531 -44.264998 -46.874967 0.000001 -0.000005 -0.000003 3.635336 -6.111021 61.464497 7.728614 -6.904476 96.464462 0.000001 -0.000000 -0.000002 3.635322 -6.111006 61.464504 7.728614 -6.904470 96.464456 -0.000001 -0.000001 -0.000000 3.635330 -6.110996 61.464497 7.728622 -6.904460 96.464462 -0.000001 0.000001 -0.000001 3.635335 -6.111044 61.464510 7.728602 -6.904467 96.464449 -0.000001 -0.000000 0.000003 0.000000 -0.000002 -0.000000 -0.000000 -0.000002 -0.000001 -0.000000 -0.000002 -0.000000 -0.000000 0.000000 0.000000 -0.000000 0.000000 -0.000000 -0.000000 0.000000 0.000000 -0.000000 -0.000000 -0.000000 0.000001 0.000000 0.000000 0.000001 0.000000 0.000000 0.000001 0.000000 0.000000 0.000001 0.000000 0.000000 0.000001 0.000000 0.000000 0.000001 0.000000 0.000000 0.000001 0.000000 0.000000 0.000000 -0.000001 0.000000 -0.000000 -0.000001 -0.000000 
-1.057834 86.452827 4.032826 -0.691055 -15.714727 -1.471927 0.000000 -0.000000 0.000000 -36.490313 15.613471 15.687678 55.530756 3.499043 10.520484 -20.084851 2.801920 -13.277882 0.000000 -0.000000 -0.000000 -0.000000 0.000000 0.000001 -30.672781 -20.578197 -12.919117 53.340345 -2.641232 -10.357459 -23.426919 -3.229426 12.460263 -0.000000 0.000002 -0.000000 0.000001 0.000003 -0.000000 3.766354 1.185908 0.183159 2.511989 1.154429 0.015427 2.492560 1.203282 -0.016407 0.179335 0.329905 1.926262 0.179340 0.329904 1.926263 -0.000001 0.000000 0.000000 0.179338 0.329905 1.926264 0.179335 0.329899 1.926268 -0.000000 -0.000001 -0.000001 -0.000001 0.000000 0.000000 0.696101 0.770072 15.279770 -49.162851 -53.221527 -56.426088 -0.000000 -52.964729 -0.000005 -101.561559 0.130796 2.653106 35.234552 -17.219604 -17.236889 29.406819 28.726533 -29.411788 -0.000004 -0.000002 0.000002 0.797690 3.221911 -27.804747 0.799597 3.225521 -27.838623 -0.000003 -0.000000 -0.000000 0.796792 3.220203 -27.788712 0.800495 3.227218 -27.854645 -0.000003 -0.000001 -0.000000 0.797698 3.221895 -27.804744 0.799601 3.225517 -27.838613 -0.000000 0.000001 0.000001 2.684964 6.814113 -27.459490 0.809053 -0.835567 -28.291880 -0.000001 0.000002 -0.000000 -0.000000 0.000003 0.000000 -0.000000 0.000003 0.000000 -0.000001 0.000003 0.000000 -0.000000 0.000001 -0.000001 -0.000000 0.000001 -0.000001 -0.000000 0.000001 -0.000001 -0.000000 0.000001 -0.000001 0.383950 -1.340513 -0.713610 5.055059 95.126271 -11.279685 0.000001 25.763214 -0.000000 -50.049475 -3.937758 -9.643296 40.606626 -3.110524 26.124248 -37.849521 -44.264988 -46.874963 -0.000000 -0.000001 0.000001 3.635335 -6.111021 61.464497 7.728617 -6.904476 96.464462 -0.000001 -0.000001 -0.000003 3.635325 -6.111005 61.464504 7.728616 -6.904467 96.464456 -0.000000 0.000001 0.000000 3.635328 -6.110995 61.464497 7.728624 -6.904457 96.464462 0.000001 0.000002 0.000001 3.635328 -6.111045 61.464510 7.728600 -6.904465 96.464449 -0.000003 0.000001 0.000001 -0.000000 0.000001 -0.000000 0.000000 0.000001 -0.000000 -0.000000 0.000001 -0.000000 0.000000 0.000000 0.000000 0.000000 0.000000 -0.000000 0.000000 0.000000 0.000000 0.000000 -0.000000 -0.000000 0.000001 -0.000001 0.000000 0.000001 -0.000001 0.000000 0.000001 -0.000001 0.000000 0.000001 -0.000001 0.000000 0.000001 -0.000001 0.000000 0.000001 -0.000001 0.000000 0.000001 -0.000001 0.000000 0.000000 -0.000001 0.000000 0.000000 -0.000000 0.000000 
-0.998894 86.424057 4.063638 -0.725567 -15.666832 -1.464390 0.000000 0.000000 0.000000 -36.447826 15.504774 15.542657 55.631013 3.621796 10.516656 -20.157720 2.820380 -13.277097 0.000000 0.000001 0.000000 0.000001 0.000000 0.000001 -30.753087 -20.744106 -13.155294 53.464306 -2.454021 -10.354759 -23.496237 -3.201916 12.443608 0.000000 0.000000 0.000000 0.000003 0.000002 -0.000001 3.773638 1.173643 0.248386 2.515586 1.148448 0.062321 2.496204 1.198885 0.030350 0.171261 0.330806 1.913155 0.171259 0.330807 1.913155 -0.000000 0.000000 0.000000 0.171261 0.330805 1.913156 0.171329 0.330805 1.913156 0.000000 0.000000 0.000000 -0.000000 0.000000 0.000000 0.649403 0.743676 15.445088 -49.232185 -53.041279 -56.699415 -0.000000 -52.985121 -0.000001 -101.509063 0.375116 2.524134 35.234555 -17.219600 -17.236886 29.406819 28.726536 -29.411795 -0.000000 0.000001 -0.000003 0.797694 3.221911 -27.804752 0.799600 3.225521 -27.838625 -0.000001 -0.000001 0.000000 0.796799 3.220200 -27.788707 0.800494 3.227221 -27.854649 -0.000003 0.000001 -0.000001 0.797701 3.221893 -27.804744 0.799597 3.225517 -27.838615 0.000000 0.000001 0.000001 2.684970 6.814112 -27.459490 0.809055 -0.835565 -28.291876 0.000002 -0.000002 -0.000002 0.000000 0.000002 0.000001 0.000000 0.000002 0.000001 -0.000001 0.000002 -0.000000 0.000000 -0.000001 -0.000001 -0.000000 -0.000001 -0.000000 0.000000 -0.000001 -0.000001 -0.000000 -0.000001 -0.000000 0.376739 -1.384607 -0.671987 5.291972 95.121217 -11.413590 -0.000001 25.831326 0.000001 -50.103440 -4.169137 -9.766429 40.606629 -3.110523 26.124241 -37.849531 -44.264998 -46.874960 0.000001 -0.000002 -0.000003 3.635335 -6.111021 61.464497 7.728615 -6.904474 96.464462 0.000003 0.000001 0.000001 3.635326 -6.111005 61.464504 7.728615 -6.904465 96.464456 -0.000002 -0.000001 0.000002 3.635324 -6.110998 61.464497 7.728624 -6.904459 96.464462 -0.000000 0.000001 -0.000001 3.635327 -6.111045 61.464510 7.728602 -6.904464 96.464449 -0.000004 -0.000000 -0.000000 0.000000 0.000000 0.000000 0.000000 -0.000000 -0.000000 0.000000 -0.000000 0.000000 0.000000 -0.000001 0.000000 0.000000 -0.000001 0.000000 0.000000 -0.000001 0.000000 0.000000 -0.000001 0.000000 0.000001 -0.000001 -0.000000 0.000001 -0.000001 -0.000000 0.000001 -0.000001 -0.000000 0.000001 -0.000001 -0.000000 0.000001 -0.000001 -0.000000 0.000001 -0.000001 -0.000000 0.000001 -0.000001 -0.000000 -0.000000 0.000001 0.000000 0.000000 0.000000 0.000000 
